/* XPM */
static char *_a965e2cfba84d93f9ab67478a6859efN7cXYuECpmaAYy6B[] = {
/* columns rows colors chars-per-pixel */
"64 64 13 1 ",
"  c #B71C1C",
". c #D50000",
"X c #D32F2F",
"o c #E53935",
"O c #FF1744",
"+ c #EF5350",
"@ c #FF5252",
"# c #3D8A3F",
"$ c #4CAF50",
"% c #FFC107",
"& c #FFEB3B",
"* c #8BC34A",
"= c #FF8A80",
/* pixels */
"########$$$$$$$$########================$$$$$$$$########$$$$$$$$",
"########$$$$$$$$########================$$$$$$$$########$$$$$$$$",
"########$$$$$$$$########================$$$$$$$$########$$$$$$$$",
"########$$$$$$$$########================$$$$$$$$########$$$$$$$$",
"########$$$$$$$$########================$$$$$$$$########$$$$$$$$",
"########$$$$$$$$########================$$$$$$$$########$$$$$$$$",
"########$$$$$$$$########================$$$$$$$$########$$$$$$$$",
"########$$$$$$$$########================$$$$$$$$########$$$$$$$$",
"$$$$$$$$OOOOOOOOOOOOOOOO========++++++++@@@@@@@@@@@@@@@@********",
"$$$$$$$$OOOOOOOOOOOOOOOO========++++++++@@@@@@@@@@@@@@@@********",
"$$$$$$$$OOOOOOOOOOOOOOOO========++++++++@@@@@@@@@@@@@@@@********",
"$$$$$$$$OOOOOOOOOOOOOOOO========++++++++@@@@@@@@@@@@@@@@********",
"$$$$$$$$OOOOOOOOOOOOOOOO========++++++++@@@@@@@@@@@@@@@@********",
"$$$$$$$$OOOOOOOOOOOOOOOO========++++++++@@@@@@@@@@@@@@@@********",
"$$$$$$$$OOOOOOOOOOOOOOOO========++++++++@@@@@@@@@@@@@@@@********",
"$$$$$$$$OOOOOOOOOOOOOOOO========++++++++@@@@@@@@@@@@@@@@********",
"########........OOOOOOOOOOOOOOOO@@@@@@@@@@@@@@@@........$$$$$$$$",
"########........OOOOOOOOOOOOOOOO@@@@@@@@@@@@@@@@........$$$$$$$$",
"########........OOOOOOOOOOOOOOOO@@@@@@@@@@@@@@@@........$$$$$$$$",
"########........OOOOOOOOOOOOOOOO@@@@@@@@@@@@@@@@........$$$$$$$$",
"########........OOOOOOOOOOOOOOOO@@@@@@@@@@@@@@@@........$$$$$$$$",
"########........OOOOOOOOOOOOOOOO@@@@@@@@@@@@@@@@........$$$$$$$$",
"########........OOOOOOOOOOOOOOOO@@@@@@@@@@@@@@@@........$$$$$$$$",
"########........OOOOOOOOOOOOOOOO@@@@@@@@@@@@@@@@........$$$$$$$$",
"++++++++++++++++........&&&&&&&&%%%%%%%%........++++++++++++++++",
"++++++++++++++++........&&&&&&&&%%%%%%%%........++++++++++++++++",
"++++++++++++++++........&&&&&&&&%%%%%%%%........++++++++++++++++",
"++++++++++++++++........&&&&&&&&%%%%%%%%........++++++++++++++++",
"++++++++++++++++........&&&&&&&&%%%%%%%%........++++++++++++++++",
"++++++++++++++++........&&&&&&&&%%%%%%%%........++++++++++++++++",
"++++++++++++++++........&&&&&&&&%%%%%%%%........++++++++++++++++",
"++++++++++++++++........&&&&&&&&%%%%%%%%........++++++++++++++++",
"XXXXXXXXXXXXXXXX@@@@@@@@%%%%%%%%%%%%%%%%OOOOOOOOXXXXXXXXXXXXXXXX",
"XXXXXXXXXXXXXXXX@@@@@@@@%%%%%%%%%%%%%%%%OOOOOOOOXXXXXXXXXXXXXXXX",
"XXXXXXXXXXXXXXXX@@@@@@@@%%%%%%%%%%%%%%%%OOOOOOOOXXXXXXXXXXXXXXXX",
"XXXXXXXXXXXXXXXX@@@@@@@@%%%%%%%%%%%%%%%%OOOOOOOOXXXXXXXXXXXXXXXX",
"XXXXXXXXXXXXXXXX@@@@@@@@%%%%%%%%%%%%%%%%OOOOOOOOXXXXXXXXXXXXXXXX",
"XXXXXXXXXXXXXXXX@@@@@@@@%%%%%%%%%%%%%%%%OOOOOOOOXXXXXXXXXXXXXXXX",
"XXXXXXXXXXXXXXXX@@@@@@@@%%%%%%%%%%%%%%%%OOOOOOOOXXXXXXXXXXXXXXXX",
"XXXXXXXXXXXXXXXX@@@@@@@@%%%%%%%%%%%%%%%%OOOOOOOOXXXXXXXXXXXXXXXX",
"$$$$$$$$@@@@@@@@@@@@@@@@................OOOOOOOOOOOOOOOO########",
"$$$$$$$$@@@@@@@@@@@@@@@@................OOOOOOOOOOOOOOOO########",
"$$$$$$$$@@@@@@@@@@@@@@@@................OOOOOOOOOOOOOOOO########",
"$$$$$$$$@@@@@@@@@@@@@@@@................OOOOOOOOOOOOOOOO########",
"$$$$$$$$@@@@@@@@@@@@@@@@................OOOOOOOOOOOOOOOO########",
"$$$$$$$$@@@@@@@@@@@@@@@@................OOOOOOOOOOOOOOOO########",
"$$$$$$$$@@@@@@@@@@@@@@@@................OOOOOOOOOOOOOOOO########",
"$$$$$$$$@@@@@@@@@@@@@@@@................OOOOOOOOOOOOOOOO########",
"########................OOOOOOOOoooooooo................$$$$$$$$",
"########................OOOOOOOOoooooooo................$$$$$$$$",
"########................OOOOOOOOoooooooo................$$$$$$$$",
"########................OOOOOOOOoooooooo................$$$$$$$$",
"########................OOOOOOOOoooooooo................$$$$$$$$",
"########................OOOOOOOOoooooooo................$$$$$$$$",
"########................OOOOOOOOoooooooo................$$$$$$$$",
"########................OOOOOOOOoooooooo................$$$$$$$$",
"$$$$$$$$********$$$$$$$$                ########$$$$$$$$********",
"$$$$$$$$********$$$$$$$$                ########$$$$$$$$********",
"$$$$$$$$********$$$$$$$$                ########$$$$$$$$********",
"$$$$$$$$********$$$$$$$$                ########$$$$$$$$********",
"$$$$$$$$********$$$$$$$$                ########$$$$$$$$********",
"$$$$$$$$********$$$$$$$$                ########$$$$$$$$********",
"$$$$$$$$********$$$$$$$$                ########$$$$$$$$********",
"$$$$$$$$********$$$$$$$$                ########$$$$$$$$********"
};
