/* XPM */
static char *_d191edfcbb04ac0f4c3e05beb65dc6eq4DPdIy5Tshhbb2B[] = {
/* columns rows colors chars-per-pixel */
"64 64 14 1 ",
"  c None",
". c #2E7D32",
"X c #388E3C",
"o c #43A047",
"O c #4CAF50",
"+ c #66BB6A",
"@ c #FDD835",
"# c #FFEB3B",
"$ c #FFEE58",
"% c #FFF176",
"& c #81C784",
"* c #A5D6A7",
"= c #FFF59D",
"- c #FFF9C4",
/* pixels */
"                                                                ",
"                                                                ",
"                                                                ",
"                            --------                            ",
"                            --------                            ",
"                            --------                            ",
"                            --------                            ",
"                        ----====%%%%---                         ",
"                        ----====%%%%---                         ",
"                        ----====%%%%---                         ",
"                        ----====%%%%---                         ",
"                     ---%%%%----====%%%----                     ",
"                     ---%%%%----====%%%----                     ",
"                     ---%%%%----====%%%----                     ",
"                     ---%%%%----====%%%----                     ",
"                     %%%====%%%%    ---%%%%                     ",
"                     %%%====%%%%    ---%%%%                     ",
"                     %%%====%%%%    ---%%%%                     ",
"                     %%%====%%%%    ---%%%%                     ",
"                     %%%====%%%%    ---%%%%                     ",
"                     ###$$$$####@@@@%%%@@@@                     ",
"                     ###$$$$####@@@@%%%@@@@                     ",
"                     ###$$$$####@@@@%%%@@@@                     ",
"                     ###$$$$####@@@@%%%@@@@                     ",
"                        ####&&&&****@@@                         ",
"                        ####&&&&****@@@                         ",
"                        ####&&&&****@@@                         ",
"                        ####&&&&****@@@                         ",
"                            ++++                                ",
"                            ++++                                ",
"                            ++++                                ",
"                            ++++                                ",
"                            oooo++++                            ",
"                            oooo++++                            ",
"                            oooo++++                            ",
"                            oooo++++                            ",
"                 &&&&   ++++    OOOOooo                         ",
"                 &&&&   ++++    OOOOooo                         ",
"                 &&&&   ++++    OOOOooo                         ",
"                 &&&&   ++++    OOOOooo                         ",
"                 &&&&+++        oooo                            ",
"                 &&&&+++        oooo                            ",
"                 &&&&+++        oooo                            ",
"                 &&&&+++        oooo                            ",
"                        ++++    oooo                            ",
"                        ++++    oooo                            ",
"                        ++++    oooo                            ",
"                        ++++    oooo                            ",
"                        ++++    oooo                            ",
"                        ....++++XXXXXXX....                     ",
"                        ....++++XXXXXXX....                     ",
"                        ....++++XXXXXXX....                     ",
"                        ....++++XXXXXXX....                     ",
"                     ...XXXX....OOOOXXX                         ",
"                     ...XXXX....OOOOXXX                         ",
"                     ...XXXX....OOOOXXX                         ",
"                     ...XXXX....OOOOXXX                         ",
"                                .......                         ",
"                                .......                         ",
"                                .......                         ",
"                                .......                         ",
"                                                                ",
"                                                                ",
"                                                                "
};
