/* XPM */
static char *_ab08191cc2f481f948aba3ccc1f4e1aJOJF4EhwQOGeaR4H[] = {
/* columns rows colors chars-per-pixel */
"64 64 7 1 ",
"  c #7A3045",
". c #9E4539",
"X c #CD683D",
"o c #3D8A3F",
"O c #4CAF50",
"+ c #E6904E",
"@ c #8BC34A",
/* pixels */
"ooooooooXXX++++Ooooooooo@@@@@@@@ooooooooOOOOOOOOooooooooOOOOOOOO",
"ooooooooXXX++++Ooooooooo@@@@@@@@ooooooooOOOOOOOOooooooooOOOOOOOO",
"ooooooooXXX++++Ooooooooo@@@@@@@@ooooooooOOOOOOOOooooooooOOOOOOOO",
"ooooooooXXX++++++++ooooo@@@@@@@@ooooooooOOOOOOOOooooooooOOOOOOOO",
"ooooooooXXX++++++++ooooo@@@@@@@@ooooooooOOOOOOOOooooooooOOOOOOOO",
"ooooooooXXX++++++++ooooo@@@@@@@@ooooooooOOOOOOOOooooooooOOOOOOOO",
"ooooooooXXX++++++++ooooo@@@@@@@@ooooooooOOOOOOOOooooooooOOOOOOOO",
"ooooooooOOOXXXX++++++++o@@@@@@@@ooooooooOOOOOOOOooooooooOOOOOOOO",
"OOOOOOOO@@@XXXX++++++++OooooooooOOOOOOOOooooooooOOOOOOOO@@@@@@@@",
"OOOOOOOO@@@XXXX++++++++OooooooooOOOOOOOOooooooooOOOOOOOO@@@@@@@@",
"OOOOOOOO@@@@@@@XXXX++++++++oooooOOOOOOOOooooooooOOOOOOOO@@@@@@@@",
"OOOOOOOO@@@@@@@XXXX++++++++oooooOOOOOOOOooooooooOOOOOOOO@@@@@@@@",
"OOOOOOOO@@@@@@@XXXX++++++++oooooOOOOOOOOooooooooOOOOOOOO@@@@@@@@",
"OOOOOOOO@@@@@@@....XXXX++++++++...................OOOOOO@@@@@@@@",
"OOOOOOOO@@@@@@@....XXXX++++++++...................OOOOOO@@@@@@@@",
"OOOOOOOO@@@@@@@....XXXX++++++++...................OOOOOO@@@@@@@@",
"ooooooooOOOOOOO....XXXX++++++++...................ooooooOOOOOOOO",
"ooooooooOOO....        XXXX+++++++                ....ooOOOOOOOO",
"ooooooooOOO....        XXXX+++++++                ....ooOOOOOOOO",
"ooooooooOOO....        XXXX+++++++                ....ooOOOOOOOO",
"ooooooooOOO...........................................ooOOOOOOOO",
"ooooooooOOO...........................................ooOOOOOOOO",
"ooooooooOOO...........................................ooOOOOOOOO",
"ooooooooOOO...........................................ooOOOOOOOO",
"OOOOOOOO       ...................................    ...ooooooo",
"OOOOOOOO       ...................................    ...ooooooo",
"OOOOOOOO       ...................................    ...ooooooo",
"OOOO                                              ...........ooo",
"OOOO                                              ...........ooo",
"OOOO                                              ...........ooo",
"OOOO                   ......................................ooo",
"OOOO                   ......................................ooo",
"oooo                   ......................................@@@",
"oooo                   ......................................@@@",
"                   ...........................XXXXXXXX..........",
"                   ...........................XXXXXXXX..........",
"                   ...........................XXXXXXXX..........",
"               ...........................XXXXXXXXXXXXXXX.......",
"               ...........................XXXXXXXXXXXXXXX.......",
"               ...........................XXXXXXXXXXXXXXX.......",
"               ...........................XXXXXXXXXXXXXXX.......",
"               ...........................XXXXXXXXXXXXXXX.......",
"               ...........................XXXXXXXXXXXXXXX.......",
"               ...........................XXXXXXXXXXXXXXX.......",
"               ...........................XXXXXXXXXXXXXXX.......",
"               ...........................XXXXXXXXXXXXXXX.......",
"               ...........................XXXXXXXXXXXXXXX.......",
"               ...........................XXXXXXXXXXXXXXX.......",
"               ...........................XXXXXXXXXXXXXXX.......",
"               ...........................XXXXXXXXXXXXXXX.......",
"               ...........................XXXXXXXXXXXXXXX.......",
"               ...............................XXXXXXXX..........",
"               ...............................XXXXXXXX..........",
"               ...............................XXXXXXXX..........",
"               .................................................",
"               .................................................",
"               .................................................",
"OOOO               ..........................................@@@",
"OOOO               ..........................................@@@",
"OOOO               ..........................................@@@",
"OOOO               ..........................................@@@",
"OOOOOOOO               ..................................@@@@@@@",
"OOOOOOOO               ..................................@@@@@@@",
"OOOOOOOO               ..................................@@@@@@@"
};
