/* XPM */
static char *_6191bfc3aa04f00cd632a94992e3fc86upUALH6AjawTKYR[] = {
/* columns rows colors chars-per-pixel */
"64 64 4 1 ",
"  c None",
". c #24222E",
"X c #4E6E60",
"o c #D9D7A1",
/* pixels */
"                ooooooooooooooooooooooooooooo...                ",
"                ooXXXXXXXXXXXXXXXXXXXXXXXXXXX...                ",
"                ooXXXXXXXXXXXXXXXXXXXXXXXXXXX...                ",
"                ooXXXXXXXXXXXXXXXXXXXXXXXXXXX...                ",
"                ooXXXXXXXXXXXXXXXXXXXXXXXXXXX...                ",
"                ooXXXXXXXXXXXXXXXXXXXXXXXXXXX...                ",
"                ooXXXXXXXXXXXXXXXXXXXXXXXXXXX...                ",
"                ooXXXXXXXXXXXXXXXXXXXXXXXXXXX...                ",
"                ooXXXX...................XXXX...                ",
"                ooXXXX.XXXXX.XXXX..XXXXooXXXX...                ",
"                ooXXXX.XXXXX.XXXX..XXXXooXXXX...                ",
"                ooXXXX.XXXXX.XXXX..XXXXooXXXX...                ",
"                ooXXXX.XXXXX.XXXX..XXXXooXXoo...                ",
"                ooXXXX.XXXXX.XXXX..XXXXooXX.....                ",
"                ooXXXX.XXXXX.XXXX..XXXXooXX.....                ",
"                ooXXXX.XXXXX.XXXX..XXXXooXX.....                ",
"                ooXXXX.XXXXX.XXXX..XXXXooXX.....                ",
"                ooXXXX.XXXXX.XXXX..XXXXooXX.....                ",
"                ooXXXX.XXXXX.XXXX..XXXXooXX.....                ",
"                ooXXXX.XXXXX.XXXX..XXXXooXX.....                ",
"                ooXXXX.XXXXX.XXXX..XXXXooXX.....                ",
"                ooXXXX.XXXXX.XXXX..XXXXooXXXX...                ",
"                ooXXXX.XXXXX.XXXX..XXXXooXXXX...                ",
"                ooXXXX.XXXXX.XXXX..XXXXooXXXX...                ",
"                ooXXXX.XXXXX.XXXX..XXXXooXXXX...                ",
"                ooXXXXXooooooooooooooooooXXXX...                ",
"                ooXXXXXooooooooooooooooooXXXX...                ",
"                ooXXXXXooooooooooooooooooXXXX...                ",
"                ooXXXXXXXXXXXXXXXXXXXXXXXXXXX...                ",
"                ooXXXXooo...XXXXXXXXXXXXXXXXX...                ",
"                ooXXXXooo...XXXXXXXXXXXXXXXXX...                ",
"                ooXXXXooo...XXXXXXXXXXXXXXXXX...                ",
"                ooXXXXooo...XXXXXXXXXXXXXXXXX...                ",
"                ooXXXX......XXXXXXXXXXXXXXXXX...                ",
"                ooXXXX......XXXXXXXXXXXXXXXXX...                ",
"                ooXXXX......XXXXXXXXXXXXXXXXX...                ",
"                ooXXXXXXXXXXXXXXXXXXXXXXXXXXX...                ",
"                ooXXXX...................XXXX...                ",
"                ooXXXX...................XXXX...                ",
"                ooXXXX...................XXXX...                ",
"                ooXXXX.XXXXX.XXXX..XXXXooXXXX...                ",
"                ooXXXX.XXXXX.XXXX..XXXXooXXXX...                ",
"                ooXXXX.XXXXX.XXXX..XXXXooXXXX...                ",
"                ooXXXX.XXXXX.XXXX..XXXXooXXXX...                ",
"                ooXXXX.XXXXX.XXXX..XXXXooXXXX...                ",
"                ooXXXX.XXXXX.XXXX..XXXXooXXXX...                ",
"                ooXXXX.XXXXX.XXXX..XXXXooXXXX...                ",
"                ooXXXX.XXXXX.XXXX..XXXXooXXXX...                ",
"                ooXXXX.XXXXX.XXXX..XXXXooXXXX...                ",
"                ooXXXX.XXXXX.XXXX..XXXXooXXoo...                ",
"                ooXXXX.XXXXX.XXXX..XXXXooXXoo...                ",
"                ooXXXX.XXXXX.XXXX..XXXXooXXoo...                ",
"                ooXXXX.XXXXX.XXXX..XXXXooXX.....                ",
"                ooXXXX.XXXXX.XXXX..XXXXooXX.....                ",
"                ooXXXX.XXXXX.XXXX..XXXXooXX.....                ",
"                ooXXXX.XXXXX.XXXX..XXXXooXX.....                ",
"                ooXXXXXooooooooooooooooooXX.....                ",
"                ooXXXXXXXXXXXXXXXXXXXXXXXXX.....                ",
"                ooXXXXXXXXXXXXXXXXXXXXXXXXX.....                ",
"                ooXXXXXXXXXXXXXXXXXXXXXXXXX.....                ",
"                ooXXXXXXXXXXXXXXXXXXXXXXXXXXX...                ",
"                ooXXXXXXXXXXXXXXXXXXXXXXXXXXX...                ",
"                ooXXXXXXXXXXXXXXXXXXXXXXXXXXX...                ",
"                ooXXXXXXXXXXXXXXXXXXXXXXXXXXX...                "
};
