/* XPM */
static char *eecbec816d47439694135e408a59c31fiMeUvMMZDkHKnERY[] = {
/* columns rows colors chars-per-pixel */
"64 64 4 1 ",
"  c None",
". c #24222E",
"X c #4E6E60",
"o c #D9D7A1",
/* pixels */
"                 XXXXXXX.....ooooooooooooooooo...               ",
"                 XX..........oXXXXXXXXXXXXXXXX...               ",
"                 XX..........oXXXXXXXXXXXXXXXX...               ",
"                 XX..........oXXXXXXXXXXXXXXXX...               ",
"                 XX..........oXXXXXXXXXXXXXXXX...               ",
"                 XX..........oXXXX.........XXX...               ",
"                 XX..........oXXXX.........XXX...               ",
"                 XX..........oXXXX.........XXX...               ",
"                 XX..........oXXXX...XXXXXXoXX...               ",
"                 XX..........oXXXX...XXXXXXooo...               ",
"                 XX..........oXXXX...XXXXXXooo...               ",
"                 XX..........oXXXX...XXXXXXooo...               ",
"                 XX..........oXXXX...XXXXXXo.....               ",
"                 XX..........oXXXX...XXXXXXo.....               ",
"                 XX..........oXXXX...XXXXXXo.....               ",
"                 XX..........oXXXX...XXXXXXo.....               ",
"                 XX..........oXXXX...XXXXXXo.....               ",
"                 XX..........oXXXX...XXXXXXoXX...               ",
"                 XX..........oXXXX...XXXXXXoXX...               ",
"                 XX..........oXXXX...XXXXXXoXX...               ",
"                 XX..........oXXXX...XXXXXXoXX...               ",
"                 XX..........oXXXX...oooooooXX...               ",
"                 XX..........oXXXX...oooooooXX...               ",
"                 XX..........oXXXX...oooooooXX...               ",
"                 XX..........oXXXXXXXXXXXXXXXX...               ",
"                 XX..........oXXXXooo..XXXXXXX...               ",
"                 XX..........oXXXXooo..XXXXXXX...               ",
"                 XX..........oXXXXooo..XXXXXXX...               ",
"                 XX..........oXXXXooo..XXXXXXX...               ",
"                 XX..........oXXXX.....XXXXXXX...               ",
"                 XX..........oXXXX.....XXXXXXX...               ",
"                 XX..........oXXXX.....XXXXXXX...               ",
"                 XX..........oXXXXXXXXXXXXXXXX...               ",
"                 XX..........oXXXX.........XXX...               ",
"                 XX..........oXXXX.........XXX...               ",
"                 XX..........oXXXX.........XXX...               ",
"                 XX..........oXXXX...XXXXXXoXX...               ",
"                 XX..........oXXXX...XXXXXXoXX...               ",
"                 XX..........oXXXX...XXXXXXoXX...               ",
"                 XX..........oXXXX...XXXXXXoXX...               ",
"                 XX..........oXXXX...XXXXXXooo...               ",
"                 XX..........oXXXX...XXXXXXo.....               ",
"                 XX..........oXXXX...XXXXXXo.....               ",
"                 XX..........oXXXX...XXXXXXo.....               ",
"                 XX..........oXXXX...XXXXXXo.....               ",
"                 XX..........oXXXX...XXXXXXo.....               ",
"                 XX..........oXXXX...XXXXXXo.....               ",
"                 XX..........oXXXX...XXXXXXo.....               ",
"                 XX..........oXXXX...XXXXXXoXX...               ",
"                 XX..........oXXXXXXXoooooooXX...               ",
"                 XX..........oXXXXXXXoooooooXX...               ",
"                 XX..........oXXXXXXXoooooooXX...               ",
"                 XX..........oXXXXXXXXXXXXXXXX...               ",
"                 XX..........oXXXXXXXXXXXXXXXX...               ",
"                 XX..........oXXXXXXXXXXXXXXXX...               ",
"                 XX..........oXXXXXXXXXXXXXXXX...               ",
"                 XX..........oXXXXXXXXXXXXXXXX...               ",
"                 XX..........oXXXXXXXXXXXXXXXX...               ",
"                 XX..........oXXXXXXXXXXXXXXXX...               ",
"                 XX..........oXXXXXXXXXXXXXXXX...               ",
"                 XX..........oXXXXXXXXXXXXXXXX...               ",
"                 XXXXXXX.....oXXXXXXXXXXXXXXXX...               ",
"                 XXXXXXX.....oXXXXXXXXXXXXXXXX...               ",
"                 XXXXXXX.....oXXXXXXXXXXXXXXXX...               "
};
