/* XPM */
static char *_a7fd559b2774f87ecb05e6b0cdbcfa2p1osPMS5OGFJ99H0[] = {
/* columns rows colors chars-per-pixel */
"64 64 14 1 ",
"  c #161618",
". c #714224",
"X c #B47238",
"o c #3D8A3F",
"O c #4CAF50",
"+ c #E5AD12",
"@ c #F9C825",
"# c #E3A55A",
"$ c #8BC34A",
"% c #6CA3C2",
"& c #FDF094",
"* c #A0D5E7",
"= c #CAEFF7",
"- c white",
/* pixels */
"ooooooooOOOOOOOOoooooooo$$$$$$$$ooooooooOOOOOOOOooooooooOOOOOOOO",
"ooooooooOOOOOOOOoooooooo$$$$$$$$ooooooooOOOOOOOOooooooooOOOOOOOO",
"ooooooooOOOOOOOOoooooooo$$$$$$$$ooooooooOOOOOOOOooooooooOOOOOOOO",
"ooooooooOOOOOOOOoooooooo$$$$$$$$ooooooooOOOOOOOOooooooooOOOOOOOO",
"ooooooooOOOOOOOOoooooooo$$$$$$$$ooooooooOOOOOOOOooooooooOOOOOOOO",
"ooooooooOOOOOOOOoooooooo$$$$$$$$ooooooooOOOOOOOOooooooooOOOOOOOO",
"ooooooooOOOOOOOOoooooooo$$$$$$$$ooooooooOOOOOOOOooo%%%ooOOO%%OOO",
"ooooooooOOOOOOOOoooooooo$$$$$$$$ooooooooOOOOOOOOooo%%%ooOOO%%OOO",
"OOOOOOOO$$$$$$$$OOOOOOOOooooooooOOOOOOOOooooooooO%%===%%$%%==%$$",
"OOOOOOOO$$$$$$$$OOOOOOOOooooooooOOOOOOOOooooooooO%%=**%%%====*%%",
"OOOOOOOO$$$$$$$$OOOOOOOOooooooooOOOOOOOOooooooooO%%=**%%%====*%%",
"OOOOOOOO$$$$$$$$OOOOOOOOooooooooOOOOOOOOoooo oooO%% **%%===***%%",
"OOOOOOOO$$$$$$$$OOOOOOOOooooooooOOOOOOOOoooo oooO%% **%%===***%%",
"OOOOOOOO$$$$$$$$OOOOOOOOooooooooOOOOOOOOooooo  oOOO%  %%=****%$$",
"OOOOOOOO$$$$$$$$OOOOOOOOooooooooOOOOOOOOooooo  oOOO%  %%=****%$$",
"OOOOOOOO$$$$$$$$OOOOOOOOooooooooOOOOOOOOooooo  .....  .......$$$",
"ooooooooOOOOOOOOooooooooOOOOOOOOoooooooo$$$$.  @@@@@    @  @@.OO",
"ooooooooOOOOOOOOooooooooOOOOOOOOoooooooo$$$$.  @@@@@    @  @@.OO",
"ooooooooOOOOOOOOooooooooOOOOOOOOoooooooo$$..@@@@@@@@@@@@ @@  @..",
"ooooooooOOOOOOOOooooooooOOOOOOOOoooooooo$$..@@@@@@@@@@@@ @@  @..",
"ooooooooOOOOOOOOooooooooOOOOOOOOoooooooo$$.. @@@@@@ @@@@ @@  @..",
"ooooooooOOOOOOOOooooooooOOOOOOOOoooooooo$$.. @@@@@@ @@@@ @@  @..",
"ooooooooOOOOOOOOooooooooOOOOOOOOoooooooo$$..-@@@@@@-@@@@ @@  @..",
"ooo%%%%oOOOO%%%OooooooooOOOOOOOOoooooooo$$..@++++@@@@@@@ @@  +..",
"OOO%%%%Ooooo%%%oOOOOOOOO$$$$$$$$OOOOOOOOoo..@++++@@@@@@@ @@  +..",
"OO%====%oo%%===%%OOOOOOO$$$..$$$OOOOOOOOoo..@@@@@@@@@@  @  @@+..",
"OO%====%oo%%===%%OOOOOOO$$$..$$$OOOOOOOOoo..@@@@@@@@@@  @  @@+..",
"OO%**===%%%%=**%%OOOOOOO$..##.$$OOOOOOOOoooo.+++++++  +++  ++.oo",
"OO%**===%%%%=**%%OOOOOOO$..##.$$OOOOOOOOoooo.+++++++  +++  ++.oo",
"OO%****===%%=**  OOO  OO$..XX#..OOOOOOOOooooo................ooo",
"OOO%%***==%%*  oOOO OOOO$$$..X##.............oooOOOOOOOOoooooooo",
"OOO%%***==%%*  oOOO OOOO$$$..X##.............oooOOOOOOOOoooooooo",
"ooo.........   .... ooooOOOOO.XX##&&&&&&&&&&&..Ooooooooo$$$$$$$$",
"ooo.........   .... ooooOOOOO.XX##&&&&&&&&&&&..Ooooooooo$$$$$$$$",
"oo.@@  @@@  @  @@@@ ..ooOOO..+...............@@..ooooooo$$$$$$$$",
"oo.@@  @@@  @  @@@@ ..ooOOO..+...............@@..ooooooo$$$$$$$$",
"..@  @@@  @@@@@@@@@@@@..OOO..+@@@@++++++++@@@++..ooooooo$$$$$$$$",
"..@  @@@  @@@@@@@@@@@@..OOO..+@@@@........@@@++..ooooooo$$$$$$$$",
"..@  @@@  @@@@@@@@@@@@..OOO..+@@@@........@@@++..ooooooo$$$$$$$$",
"..@  @@@  @@@  @@@@@  ..O..+++@@&&@@@@@@@@@@@++++..ooooo$$$$$$$$",
"..@  @@@  @@@  @@@@@  ..o..+++@@&&@@@@@@@@@@@++++..OOOOOoooooooo",
"..@  @@@  @@@--@@@@@--..o..++&&&@@@@@@@@@@@@@&&++..OOOOOoooooooo",
"..@  @@@  @@@--@@@@@--..o..++&&&@@@@@@@@@@@@@&&++..OOOOOoooooooo",
"..+  ++@  ++@@@@@+++@@..o..++@&&@@@@@@@@@@@@&@@++..OOOOOoooooooo",
"..+@@  @@@  +@@@@@@@@@..o..++@&&@@@@@@@@@@@@@@@++..OOOOOoooooooo",
"..+@@  @@@  +@@@@@@@@@..o..++@&&@@@@@@@@@@@@@@@++..OOOOOoooooooo",
"OO.++  +++++ ++++++@..OOooo..+@@@@@@@@@@@@@@@++..OOOOOOOoooooooo",
"OO.++  +++++ ++++++@..OOooo..+@@@@@@@@@@@@@@@++..OOOOOOOoooooooo",
"ooo.................oooo$$$$$.++@@@@@@@@@@@@+..OooooooooOOOOOOOO",
"ooo.................oooo$$$$$.++@@@@@@@@@@@@+..OooooooooOOOOOOOO",
"ooooooooOOOOOOOOoooooooo$$$$$$..++++++++++++.OOOooooooooOOOOOOOO",
"ooooooooOOOOOOOOoooooooo$$$$$$$$............OOOOooooooooOOOOOOOO",
"ooooooooOOOOOOOOoooooooo$$$$$$$$............OOOOooooooooOOOOOOOO",
"ooooooooOOOOOOOOoooooooo$$$$$$$$ooooooooOOOOOOOOooooooooOOOOOOOO",
"ooooooooOOOOOOOOoooooooo$$$$$$$$ooooooooOOOOOOOOooooooooOOOOOOOO",
"ooooooooOOOOOOOOoooooooo$$$$$$$$ooooooooOOOOOOOOooooooooOOOOOOOO",
"OOOOOOOO$$$$$$$$OOOOOOOOooooooooOOOOOOOOooooooooOOOOOOOO$$$$$$$$",
"OOOOOOOO$$$$$$$$OOOOOOOOooooooooOOOOOOOOooooooooOOOOOOOO$$$$$$$$",
"OOOOOOOO$$$$$$$$OOOOOOOOooooooooOOOOOOOOooooooooOOOOOOOO$$$$$$$$",
"OOOOOOOO$$$$$$$$OOOOOOOOooooooooOOOOOOOOooooooooOOOOOOOO$$$$$$$$",
"OOOOOOOO$$$$$$$$OOOOOOOOooooooooOOOOOOOOooooooooOOOOOOOO$$$$$$$$",
"OOOOOOOO$$$$$$$$OOOOOOOOooooooooOOOOOOOOooooooooOOOOOOOO$$$$$$$$",
"OOOOOOOO$$$$$$$$OOOOOOOOooooooooOOOOOOOOooooooooOOOOOOOO$$$$$$$$",
"OOOOOOOO$$$$$$$$OOOOOOOOooooooooOOOOOOOOooooooooOOOOOOOO$$$$$$$$"
};
