/* XPM */
static char *_555a1139dca45119b9f2f732291d144AaGdkomshyGBhDRb[] = {
/* columns rows colors chars-per-pixel */
"64 64 3 1 ",
"  c #3D8A3F",
". c #4CAF50",
"X c #8BC34A",
/* pixels */
"        ........        XXXXXXXX        ........        ........",
"        ........        XXXXXXXX        ........        ........",
"        ........        XXXXXXXX        ........        ........",
"        ........        XXXXXXXX        ........        ........",
"        ........        XXXXXXXX        ........        ........",
"        ........        XXXXXXXX        ........        ........",
"        ........        XXXXXXXX        ........        ........",
"        ........        XXXXXXXX        ........        ........",
"........XXXXXXXX........        ........        ........XXXXXXXX",
"........XXXXXXXX........        ........        ........XXXXXXXX",
"........XXXXXXXX........        ........        ........XXXXXXXX",
"........XXXXXXXX........        ........        ........XXXXXXXX",
"........XXXXXXXX........        ........        ........XXXXXXXX",
"........XXXXXXXX........        ........        ........XXXXXXXX",
"........XXXXXXXX........        ........        ........XXXXXXXX",
"........XXXXXXXX........        ........        ........XXXXXXXX",
"        ........        ........        XXXXXXXX        ........",
"        ........        ........        XXXXXXXX        ........",
"        ........        ........        XXXXXXXX        ........",
"        ........        ........        XXXXXXXX        ........",
"        ........        ........        XXXXXXXX        ........",
"        ........        ........        XXXXXXXX        ........",
"        ........        ........        XXXXXXXX        ........",
"        ........        ........        XXXXXXXX        ........",
"........        ........XXXXXXXX........        ........        ",
"........        ........XXXXXXXX........        ........        ",
"........        ........XXXXXXXX........        ........        ",
"........        ........XXXXXXXX........        ........        ",
"........        ........XXXXXXXX........        ........        ",
"........        ........XXXXXXXX........        ........        ",
"........        ........XXXXXXXX........        ........        ",
"........        ........XXXXXXXX........        ........        ",
"        XXXXXXXX        ........        ........        XXXXXXXX",
"        XXXXXXXX        ........        ........        XXXXXXXX",
"        XXXXXXXX        ........        ........        XXXXXXXX",
"        XXXXXXXX        ........        ........        XXXXXXXX",
"        XXXXXXXX        ........        ........        XXXXXXXX",
"        XXXXXXXX        ........        ........        XXXXXXXX",
"        XXXXXXXX        ........        ........        XXXXXXXX",
"        XXXXXXXX        ........        ........        XXXXXXXX",
"........        ........        ........XXXXXXXX........        ",
"........        ........        ........XXXXXXXX........        ",
"........        ........        ........XXXXXXXX........        ",
"........        ........        ........XXXXXXXX........        ",
"........        ........        ........XXXXXXXX........        ",
"........        ........        ........XXXXXXXX........        ",
"........        ........        ........XXXXXXXX........        ",
"........        ........        ........XXXXXXXX........        ",
"        ........        XXXXXXXX        ........        ........",
"        ........        XXXXXXXX        ........        ........",
"        ........        XXXXXXXX        ........        ........",
"        ........        XXXXXXXX        ........        ........",
"        ........        XXXXXXXX        ........        ........",
"        ........        XXXXXXXX        ........        ........",
"        ........        XXXXXXXX        ........        ........",
"        ........        XXXXXXXX        ........        ........",
"........XXXXXXXX........        ........        ........XXXXXXXX",
"........XXXXXXXX........        ........        ........XXXXXXXX",
"........XXXXXXXX........        ........        ........XXXXXXXX",
"........XXXXXXXX........        ........        ........XXXXXXXX",
"........XXXXXXXX........        ........        ........XXXXXXXX",
"........XXXXXXXX........        ........        ........XXXXXXXX",
"........XXXXXXXX........        ........        ........XXXXXXXX",
"........XXXXXXXX........        ........        ........XXXXXXXX"
};
