/* XPM */
static char *_b7acb77812f4d7d8ea39dc51e386b481MnU1Z0UX65jTdXe[] = {
/* columns rows colors chars-per-pixel */
"64 64 14 1 ",
"  c #1F181F",
". c #221B22",
"X c #524C50",
"o c #83590F",
"O c #3D8A3F",
"+ c #4CAF50",
"@ c #E9BA30",
"# c #8BC34A",
"$ c #F6DF51",
"% c #91B3BD",
"& c #F6B58F",
"* c #B5D0D9",
"= c #D7E9EB",
"- c #EAF8F9",
/* pixels */
"OOOOO%%%%%%%++++OOOOOOOO########OOOOOOOO%%%%%%%%%%%OOOOO++++++++",
"OOOOO%%%%%%%++++OOOOOOOO########OOOOOOOO%%%%%%%%%%%OOOOO++++++++",
"OOO%%-------%%%%OOOOOOOO########OOOOOO%%----=======%%OOO++++++++",
"O%%=========----%%OOOOOO########OOOO%%----=========%%OOO++++++++",
"O%%=========----%%OOOOOO########OOOO%%----=========%%OOO++++++++",
"O%%===========----%%OOOO########OO%%----**=========%%OOO++++++++",
"O%%===========----%%OOOO########OO%%----**=========%%OOO++++++++",
"O%%=============----%OOO########OO%%--****=========%%OOO++++++++",
"+%%**===========-----%%+OOOOOOOO++%%--****=========%%+++########",
"+%%**===========-----%%+OOOOOOOO++%%--****=========%%+++########",
"+%%****===========---%%+OOOOOOOO%%--****=========%%+++++########",
"+%%****===========---%%+OOOOOOOO%%--****=========%%+++++########",
"+++%%***=============--%%OOOOOO%******=======**%%+++++++########",
"+++++%%*****===========--%%OOOO%******=======%%O++++++++########",
"+++++%%*****===========--%%OOOO%******=======%%O++++++++########",
"+++++%%*****===========--%%OOOO%**....=======%%O++++++++#...####",
"OOOOO%%*****===========--%%++++%**....=======%%#OOOOOOOO+...++++",
"OOOOOOO%********=========%%++++%..XXXX..====%###OOOOOOO..XXX  ++",
"OOOOOOO%********=========%%++++%..XXXX..====%###OOOOOOO..XXX  ++",
"OOOOOOOO%%********===ooooooooooooo  XX  oooo####OOOOO  XX...++++",
"OOOOOOOO++%%%%%%**oooXXXX$$$$$$$XXXX    XXXXXXXooooOO    +++++++",
"OOOOOOOO++%%%%%%**oooXXXX$$$$$$$XXXX    XXXXXXXooooOO    +++++++",
"OOOOOOOO++++++ooooXXXXX$$$$$$XXXXXXXXX  XX$$$$$$$$$oo  O++++++++",
"OOOOOOOO++++++ooooXXXXX$$$$$$XXXXXXXXX  XX$$$$$$$$$oo  O++++++++",
"++++++++OOOOoo$$XXXXX$$$$$$XXXXXXXXX$$XX  $$$$$$$$$$$..ooOOOOOOO",
"++++++++OOoo$$XXXXXX$$$$$XXXXXXXXX$$$$$$..$$$$$$$$$$$..$$oooOOOO",
"++++++++OOoo$$XXXXXX$$$$$XXXXXXXXX$$$$$$..$$$$$$$$$$$..$$oooOOOO",
"++++++++oo$$XXXXXX$$$$$XXXXXXXX$$$$$$$$$$$$$$$$$$$$$$$$$$$$$ooOO",
"++++++++oo$$XXXXXX$$$$$XXXXXXXX$$$$$$$$$$$$$$$$$$$$$$$$$$$$$ooOO",
"++++++++oo$$XXXXXX$$$$$XXXXXX$$$$$$$$$$$$$$$$$$$$$$$$$$$$$$$ooOO",
"++++++++oo$$XXXXXX$$$XXXXXX$$$$$$$$$$$$$$$$$$$$$$$$$$$$$$$$$ooOO",
"++++++++oo$$XXXXXX$$$XXXXXX$$$$$$$$$$$$$$$$$$$$$$$$$$$$$$$$$ooOO",
"OOOOOOOo@@XXXXXX$$$$$XXXXXX$$$$$$$$$$$$$$$$$$$$$$$$$$$$$$$$$$$oo",
"OOOOOOOo@@XXXXXX$$$$$XXXXXX$$$$$$$$$$$$$$$$$$$$$$$$$$$$$$$$$$$oo",
"OOOOOOOo@@XXXXXX$$$$$XXXXXX$$$$$$$$$$$$$$$$$$$$$$$$$$$$$$$$$$$oo",
"OOOOOoo@....XX$$$$$$.....@@$$$$$$$$$$$......$$$$$$$$$$$$$ ....oo",
"OOOOOoo@....XX$$$$$$.....@@$$$$$$$$$$$......$$$$$$$$$$$$$ ....oo",
"OOOOOoo@......$$$$$$.....@@$$$$$$$$$....----.$$$$$$$$$$..---....",
"OOOOOoo@......$$$$$$.....@@$$$$$$$$$....----.$$$$$$$$$$..---....",
"OOOOOoo@......@@$$$$.....@@$$$$$$$$$.........$$$$$$$$$$.........",
"+++++oo@......@@$$$$.....@@$$$$$$$$$.........$$$$$$$$$$.........",
"+++++oo@......@@$$$$.....@@$$$$$$$$$.........$$$$$$$$$$.........",
"+++++oo@......@@@@$$.....@@$$$$$$$$$$$......$$$$$$$$$$$$$.....oo",
"+++++oo@......@@@@$$.....@@$$$$$$$$$$$......$$$$$$$$$$$$$.....oo",
"+++++oo@......@@@@@@.....@@@@$$$$$&&&&&&&&$$$$$oo$$oo$$$$&&&&&oo",
"+++++++o@@......@@@@@....  @@$$$$$&&&&&&&&$$$$$$$$$$$$$$$&&&&&oo",
"+++++++o@@......@@@@@....  @@$$$$$&&&&&&&&$$$$$$$$$$$$$$$&&&&&oo",
"+++++++o@@......@@@@@......@@$$$$$$$$$$$$$$$$$$$$$$$$$$$$$$$$$oo",
"OOOOOOOo@@......@@@@@......@@$$$$$$$$$$$$$$$$$$$$$$$$$$$$$$$$$oo",
"OOOOOOOOoo@@....@@@@@......@@@@@@$$$$$$$$$$$$$$$$$$$$$$$$$$$oo++",
"OOOOOOOOoo@@....@@@@@......@@@@@@$$$$$$$$$$$$$$$$$$$$$$$$$$$oo++",
"OOOOOOOOoo@@......@@@@@......@@@@@$$$$$$$$$$$$$$$$$$$$$$$$oo++++",
"OOOOOOOO++oo@@....  @@@@@........ @@@@@@@@$$$$$$$$$$$$$$$o++++++",
"OOOOOOOO++oo@@....  @@@@@........ @@@@@@@@$$$$$$$$$$$$$$$o++++++",
"OOOOOOOO++++oo......@@@@@.........@@@@@@@@$$$$$$$$$$$$$oo+++++++",
"OOOOOOOO++++oo......@@@@@.........@@@@@@@@$$$$$$$$$$$$$oo+++++++",
"++++++++######oo.......@@@@@@...........@@@@@@@@@oooooo+########",
"++++++++########oo..XXX..@@@@..XXX.............oo+++++++########",
"++++++++########oo..XXX..@@@@..XXX.............oo+++++++########",
"++++++++########++..XXX..oooo..XXX..oooo..XXX..O++++++++########",
"++++++++########++..XXX..oooo..XXX..oooo..XXX..O++++++++########",
"++++++++########++++...+OOOOO  XXX..++++..XXX..O++++++++########",
"++++++++########++++++++OOOOOOO...++++++OO...OOO++++++++########",
"++++++++########++++++++OOOOOOO...++++++OO...OOO++++++++########"
};
