/* XPM */
static char *_21fd9090c7a4c45d4f5910cdd11c20fkPjE0OI3TkXRmYkG[] = {
/* columns rows colors chars-per-pixel */
"64 64 12 1 ",
"  c None",
". c #1F181F",
"X c #221B22",
"o c #524C50",
"O c #83590F",
"+ c #E9BA30",
"@ c #F6DF51",
"# c #91B3BD",
"$ c #F6B58F",
"% c #B5D0D9",
"& c #D7E9EB",
"* c #EAF8F9",
/* pixels */
"    #######                             ###########             ",
"    #######                             ###########             ",
"  ##*******####                       ##***&&&&&&&&##           ",
"##&&&&&&&&&****##                   ##***&&&&&&&&&&##           ",
"##&&&&&&&&&****##                   ##***&&&&&&&&&&##           ",
"##&&&&&&&&&&&****##               ##****%&&&&&&&&&&##           ",
"##&&&&&&&&&&&****##               ##****%&&&&&&&&&&##           ",
"##&&&&&&&&&&&&&****##             ##**%%%&&&&&&&&&&##           ",
"##%%&&&&&&&&&&&******##           ##**%%%&&&&&&&&&&##           ",
"##%%&&&&&&&&&&&******##           ##**%%%&&&&&&&&&&##           ",
"##%%%%&&&&&&&&&&&****##         ##**%%%%&&&&&&&&&##             ",
"##%%%%&&&&&&&&&&&****##         ##**%%%%&&&&&&&&&##             ",
"  ##%%%%&&&&&&&&&&&&&**#      ##%%%%%%&&&&&&&%%##               ",
"    ##%%%%%&&&&&&&&&&&&*##    ##%%%%%%&&&&&&&##                 ",
"    ##%%%%%&&&&&&&&&&&&*##    ##%%%%%%&&&&&&&##                 ",
"    ##%%%%%&&&&&&&&&&&&*##    ##%%XXXX&&&&&&&##         XXXX    ",
"    ##%%%%%&&&&&&&&&&&&*##    ##%%XXXX&&&&&&&##         XXXX    ",
"      ##%%%%%%%&&&&&&&&&##    ##XXooooXX&&&##          Xoooo..  ",
"      ##%%%%%%%&&&&&&&&&##    ##XXooooXX&&&##          Xoooo..  ",
"        #%%%%%%%%&&&&OOOOOOOOOOOOO..oo..OOO          ..oXXXX    ",
"         ######%%OOOOooo@@@@@@@@oooo....oooooooOOOO  ...        ",
"         ######%%OOOOooo@@@@@@@@oooo....oooooooOOOO  ...        ",
"             OOOOoooooo@@@@@oooooooooo..o@@@@@@@@@@OO..         ",
"             OOOOoooooo@@@@@oooooooooo..o@@@@@@@@@@OO..         ",
"           OO@@oooooo@@@@@oooooooooo@@oo.@@@@@@@@@@@@XXO        ",
"         OO@@oooooo@@@@@oooooooooo@@@@@@X@@@@@@@@@@@@XX@OOOO    ",
"         OO@@oooooo@@@@@oooooooooo@@@@@@X@@@@@@@@@@@@XX@OOOO    ",
"        O@@oooooo@@@@@@ooooooo@@@@@@@@@@@@@@@@@@@@@@@@@@@@@@OO  ",
"        O@@oooooo@@@@@@ooooooo@@@@@@@@@@@@@@@@@@@@@@@@@@@@@@OO  ",
"        O@@oooooo@@@@@@ooooo@@@@@@@@@@@@@@@@@@@@@@@@@@@@@@@@OO  ",
"        O@@oooooo@@@@ooooo@@@@@@@@@@@@@@@@@@@@@@@@@@@@@@@@@@OO  ",
"        O@@oooooo@@@@ooooo@@@@@@@@@@@@@@@@@@@@@@@@@@@@@@@@@@OO  ",
"      OO+oooooo@@@@@@ooooo@@@@@@@@@@@@@@@@@@@@@@@@@@@@@@@@@@@@OO",
"      OO+oooooo@@@@@@ooooo@@@@@@@@@@@@@@@@@@@@@@@@@@@@@@@@@@@@OO",
"      OO+oooooo@@@@@@ooooo@@@@@@@@@@@@@@@@@@@@@@@@@@@@@@@@@@@@OO",
"    OO++XXXoo@@@@@@XXXXX++@@@@@@@@@@@@XXXXX@@@@@@@@@@@@@..XXXXOO",
"    OO++XXXoo@@@@@@XXXXX++@@@@@@@@@@@@XXXXX@@@@@@@@@@@@@..XXXXOO",
"    OO++XXXXX@@@@@@XXXXX++@@@@@@@@@@XXXX***XX@@@@@@@@@@X****XXXX",
"    OO++XXXXX@@@@@@XXXXX++@@@@@@@@@@XXXX***XX@@@@@@@@@@X****XXXX",
"    OO++XXXXX++@@@@XXXXX++@@@@@@@@@@XXXXXXXXX@@@@@@@@@@XXXXXXXXX",
"    OO++XXXXX++@@@@XXXXX++@@@@@@@@@@XXXXXXXXX@@@@@@@@@@XXXXXXXXX",
"    OO++XXXXX++@@@@XXXXX++@@@@@@@@@@XXXXXXXXX@@@@@@@@@@XXXXXXXXX",
"    OO++XXXXX++++@@XXXXX++@@@@@@@@@@@@XXXXX@@@@@@@@@@@@@XXXXXXOO",
"    OO++XXXXX++++@@XXXXX++@@@@@@@@@@@@XXXXX@@@@@@@@@@@@@XXXXXXOO",
"    OO++XXXXX++++++XXXXX++++@@@@@@$$$$$$$@@@@@@OO@@OO@@@$$$$$$OO",
"      OO+XXXXXX++++++XXX..++@@@@@@$$$$$$$@@@@@@@@@@@@@@@$$$$$$OO",
"      OO+XXXXXX++++++XXX..++@@@@@@$$$$$$$@@@@@@@@@@@@@@@$$$$$$OO",
"      OO+XXXXXX++++++XXXXX++@@@@@@@@@@@@@@@@@@@@@@@@@@@@@@@@@@OO",
"      OO+XXXXXX++++++XXXXX++@@@@@@@@@@@@@@@@@@@@@@@@@@@@@@@@@@OO",
"        O++XXXX++++++XXXXX++++++@@@@@@@@@@@@@@@@@@@@@@@@@@@@OO  ",
"        O++XXXX++++++XXXXX++++++@@@@@@@@@@@@@@@@@@@@@@@@@@@@OO  ",
"        O++XXXXXX++++++XXXXX++++++@@@@@@@@@@@@@@@@@@@@@@@@OO    ",
"         OO++XXXX..+++++XXXXXXXX..+++++++@@@@@@@@@@@@@@@OO      ",
"         OO++XXXX..+++++XXXXXXXX..+++++++@@@@@@@@@@@@@@@OO      ",
"           OOXXXXXX+++++XXXXXXXXXX+++++++@@@@@@@@@@@@@@O        ",
"           OOXXXXXX+++++XXXXXXXXXX+++++++@@@@@@@@@@@@@@O        ",
"             OOXXXXXXXX+++++XXXXXXXXXXXX+++++++++OOOOOO         ",
"               OOXXooooX++++XXooooXXXXXXXXXXXXXOO               ",
"               OOXXooooX++++XXooooXXXXXXXXXXXXXOO               ",
"                 XXooooXOOOOXXooooXXOOOOXooooXX                 ",
"                 XXooooXOOOOXXooooXXOOOOXooooXX                 ",
"                   XXXX     ..ooooXX    XooooXX                 ",
"                              XXXX       XXXX                   ",
"                              XXXX       XXXX                   "
};
