/* XPM */
static char *_90d2fb08857409d95372ae39dc8ec9amHLwuOmfXbuGkqDO[] = {
/* columns rows colors chars-per-pixel */
"64 64 7 1 ",
"  c #593D29",
". c #79553A",
"X c #745844",
"o c #6C6C6C",
"O c #966C4A",
"+ c #B9855C",
"@ c gray53",
/* pixels */
"+++OOOOOOOO........++++OOOOOOOO.........    ........++++....++++",
"+++OOOOOOOO........++++OOOOOOOO.........    ........++++....++++",
"+++OOOOOOOO........++++OOOOOOOO.........    ........++++....++++",
"+++OOOOOOOO........++++OOOOOOOO.........    ........++++....++++",
"...OOOO    ........OOOO@@@@    .....++++OOOO....++++OOOO        ",
"...OOOO    ........OOOO@@@@    .....++++OOOO....++++OOOO        ",
"...OOOO    ........OOOO@@@@    .....++++OOOO....++++OOOO        ",
"...OOOO    ........OOOO@@@@    .....++++OOOO....++++OOOO        ",
"+++........    ++++............+++++............        ++++OOOO",
"+++........    ++++............+++++............        ++++OOOO",
"+++........    ++++............+++++............        ++++OOOO",
"+++........    ++++............+++++............        ++++OOOO",
"OOOoooo++++....OOOO    ....++++OOOOOOOOO....OOOO....++++OOOO....",
"OOOoooo++++....OOOO    ....++++OOOOOOOOO....OOOO....++++OOOO....",
"OOOoooo++++....OOOO    ....++++OOOOOOOOO....OOOO....++++OOOO....",
"OOOoooo++++....OOOO    ....++++OOOOOOOOO....OOOO....++++OOOO....",
"OOO....OOOO++++    OOOO........OOOOO    ....oooo....OOOO    ....",
"OOO....OOOO++++    OOOO........OOOOO    ....oooo....OOOO    ....",
"OOO....OOOO++++    OOOO........OOOOO    ....oooo....OOOO    ....",
"OOO....OOOO++++    OOOO........OOOOO    ....oooo....OOOO    ....",
"...    OOOOOOOO....OOOO             ........    ............++++",
"...    OOOOOOOO....OOOO             ........    ............++++",
"...    OOOOOOOO....OOOO             ........    ............++++",
"...    OOOOOOOO....OOOO             ........    ............++++",
"+++............@@@@........+++++++++....++++++++....OOOO....OOOO",
"+++............@@@@........+++++++++....++++++++....OOOO....OOOO",
"+++............@@@@........+++++++++....++++++++....OOOO....OOOO",
"+++............@@@@........+++++++++....++++++++....OOOO....OOOO",
".......++++++++OOOOOOOO........OOOOO    OOOOOOOO........OOOOOOOO",
".......++++++++OOOOOOOO........OOOOO    OOOOOOOO........OOOOOOOO",
".......++++++++OOOOOOOO........OOOOO    OOOOOOOO........OOOOOOOO",
".......++++++++OOOOOOOO........OOOOO    OOOOOOOO........OOOOOOOO",
"OOO........OOOO....OOOO....     ....OOOOOOOO............    ....",
"OOO........OOOO....OOOO....     ....OOOOOOOO............    ....",
"OOO........OOOO....OOOO....     ....OOOOOOOO............    ....",
"OOO........OOOO....OOOO....     ....OOOOOOOO............    ....",
"...OOOO    ........        .....................++++++++....OOOO",
"...OOOO    ........        .....................++++++++....OOOO",
"...OOOO    ........        .....................++++++++....OOOO",
"...OOOO    ........        .....................++++++++....OOOO",
"...OOOO....++++++++....++++OOOOO    ++++++++    OOOOOOOO@@@@....",
"...OOOO....++++++++....++++OOOOO    ++++++++    OOOOOOOO@@@@....",
"...OOOO....++++++++....++++OOOOO    ++++++++    OOOOOOOO@@@@....",
"...OOOO....++++++++....++++OOOOO    ++++++++    OOOOOOOO@@@@....",
"OOO........OOOOOOOO++++....OOOOOooooOOOOOOOO....    OOOO....    ",
"OOO........OOOOOOOO++++....OOOOOooooOOOOOOOO....    OOOO....    ",
"OOO........OOOOOOOO++++....OOOOOooooOOOOOOOO....    OOOO....    ",
"OOO........OOOOOOOO++++....OOOOOooooOOOOOOOO....    OOOO....    ",
"...    OOOO....OOOOOOOO++++.............................++++++++",
"...    OOOO....OOOOOOOO++++.............................++++++++",
"...    OOOO....OOOOOOOO++++.............................++++++++",
"...    OOOO....OOOOOOOO++++.............................++++++++",
"...OOOO........XXXX....OOOOOOOOO....    ++++    ....++++OOOOOOOO",
"...OOOO........XXXX....OOOOOOOOO....    ++++    ....++++OOOOOOOO",
"...OOOO........XXXX....OOOOOOOOO....    ++++    ....++++OOOOOOOO",
"...OOOO........XXXX....OOOOOOOOO....    ++++    ....++++OOOOOOOO",
"OOO....    ++++....    ....     ++++++++....OOOO........OOOOOOOO",
"OOO....    ++++....    ....     ++++++++....OOOO........OOOOOOOO",
"OOO....    ++++....    ....     ++++++++....OOOO........OOOOOOOO",
"OOO....    ++++....    ....     ++++++++....OOOO........OOOOOOOO",
"OOO....++++OOOOOOOO....@@@@.....OOOOOOOO........OOOOOOOO....    ",
"OOO....++++OOOOOOOO....@@@@.....OOOOOOOO........OOOOOOOO....    ",
"OOO....++++OOOOOOOO....@@@@.....OOOOOOOO........OOOOOOOO....    ",
"OOO....++++OOOOOOOO....@@@@.....OOOOOOOO........OOOOOOOO....    "
};
